<?xml version="1.0" encoding="utf-8" ?>
<svg baseProfile="full" height="600" version="1.1" width="600" xmlns="http://www.w3.org/2000/svg" xmlns:ev="http://www.w3.org/2001/xml-events" xmlns:xlink="http://www.w3.org/1999/xlink"><defs /><rect fill="rgb(50,50,50)" height="100%" width="100%" x="0" y="0" /><ellipse cx="300.0" cy="300.0" fill="yellow" rx="17.5" ry="17.5" /><ellipse cx="0" cy="0" fill="none" rx="69.8168879515" ry="46.0012120485" stroke="rgb(190, 190, 190)" stroke-opacity="0.6" stroke-width="3" transform="rotate(48.331,300.0,300.0) translate(311.90783795149997,300.0) scale(0.9221681111111111,1)" /><ellipse cx="0" cy="0" fill="none" rx="108.94192444507001" ry="107.47607555492999" stroke="rgb(190, 190, 190)" stroke-opacity="0.6" stroke-width="3" transform="rotate(76.68069,300.0,300.0) translate(300.73292444507,300.0) scale(0.9622777777777778,1)" /><ellipse cx="0" cy="0" fill="none" rx="152.09578207112" ry="147.09621792888" stroke="rgb(190, 190, 190)" stroke-opacity="0.6" stroke-width="3" transform="rotate(-11.26064,300.0,300.0) translate(302.49978207111997,300.0) scale(0.9999994444444444,1)" /><ellipse cx="0" cy="0" fill="none" rx="249.21381849059" ry="206.63218150940997" stroke="rgb(190, 190, 190)" stroke-opacity="0.6" stroke-width="3" transform="rotate(49.57854,300.0,300.0) translate(321.29081849059,300.0) scale(0.9794376666666667,1)" /><ellipse cx="0" cy="0" fill="none" rx="816.2470732962" ry="740.8929267038" stroke="rgb(190, 190, 190)" stroke-opacity="0.6" stroke-width="3" transform="rotate(100.55615,300.0,300.0) translate(337.67707329620004,300.0) scale(0.9854966666666667,1)" /><ellipse cx="0" cy="0" fill="none" rx="1511.1554554674" ry="1355.9025445326" stroke="rgb(190, 190, 190)" stroke-opacity="0.6" stroke-width="3" transform="rotate(113.71504,300.0,300.0) translate(377.6264554674001,300.0) scale(0.9723948888888889,1)" /><ellipse cx="0" cy="0" fill="none" rx="3007.95050176973" ry="2736.9754982302697" stroke="rgb(190, 190, 190)" stroke-opacity="0.6" stroke-width="3" transform="rotate(74.22988,300.0,300.0) translate(435.4875017697301,300.0) scale(0.991446,1)" /><ellipse cx="0" cy="0" fill="none" rx="4533.6540008022" ry="4456.4659991978" stroke="rgb(190, 190, 190)" stroke-opacity="0.6" stroke-width="3" transform="rotate(131.784,300.0,300.0) translate(338.5940008022003,300.0) scale(0.9803425555555556,1)" /></svg>